<svg xmlns="http://www.w3.org/2000/svg" viewBox="0 16.828571319580078 147.3000030517578 90.3214340209961" data-asc="1.263" width="147.3000030517578" height="90.3214340209961"><defs/><g fill="#ffffff"><g transform="translate(0, 0)"><path d="M8.70 26.15L19.50 19.90Q21.20 18.90 22.53 19.65Q23.85 20.40 23.85 22.40L23.85 27.40L19.50 29.90L19.50 24.90L8.70 31.15L8.70 60.15L19.50 53.90L19.50 48.90L23.85 46.40L23.85 51.40Q23.85 52.70 23.23 54.20Q22.60 55.70 21.63 56.97Q20.65 58.25 19.50 58.90L8.70 65.15Q6.95 66.15 5.65 65.40Q4.35 64.65 4.35 62.65L4.35 33.65Q4.35 32.30 4.95 30.82Q5.55 29.35 6.55 28.07Q7.55 26.80 8.70 26.15M23.85 46.40L19.50 48.90L15.15 46.40L19.50 43.90L23.85 46.40M19.50 48.90L19.50 53.90L15.15 51.40L15.15 46.40L19.50 48.90M19.50 53.90L8.70 60.15L4.35 57.65L15.15 51.40L19.50 53.90M19.50 24.90L19.50 29.90L15.15 27.40L15.15 22.40L19.50 24.90M22.55 19.65Q21.20 18.90 19.50 19.90L8.70 26.15Q7.55 26.80 6.55 28.07Q5.55 29.35 4.95 30.82Q4.35 32.30 4.35 33.65L4.35 62.65Q4.35 64.65 5.65 65.40L1.30 62.90Q0 62.15 0 60.15L0 31.15Q0 29.80 0.60 28.32Q1.20 26.85 2.20 25.57Q3.20 24.30 4.35 23.65L15.15 17.40Q16.90 16.40 18.20 17.15L22.55 19.65ZM41.15 64.65Q39.45 65.65 38.15 64.90Q36.85 64.15 36.85 62.15L47.65 55.90L47.65 21.90L52 19.40L52 48.40Q52 49.70 51.38 51.20Q50.75 52.70 49.78 53.97Q48.80 55.25 47.65 55.90Q47.65 57.20 47.05 58.70Q46.45 60.20 45.45 61.47Q44.45 62.75 43.30 63.40L41.15 64.65M36.85 62.15Q35.10 63.15 33.80 62.40Q32.50 61.65 32.50 59.65L32.50 30.65L36.85 28.15L36.85 62.15M52 19.40L47.65 21.90L43.30 19.40L47.65 16.90L52 19.40M47.65 21.90L47.65 55.90L43.30 53.40L43.30 19.40L47.65 21.90M47.65 55.90L36.85 62.15L32.50 59.65L43.30 53.40L47.65 55.90M36.85 62.15Q36.85 64.15 38.15 64.90L33.80 62.40Q32.50 61.65 32.50 59.65L36.85 62.15M36.85 28.15L32.50 30.65L28.15 28.15L32.50 25.65L36.85 28.15M32.50 30.65L32.50 59.65Q32.50 61.65 33.80 62.40L29.45 59.90Q28.15 59.15 28.15 57.15L28.15 28.15L32.50 30.65Z"/></g><g transform="translate(0, 34.5)"><path d="M8.70 36.15L17.35 31.15Q19.05 30.15 20.35 30.90Q21.65 31.65 21.65 33.65L21.65 41.15Q21.65 42.45 21.05 43.95Q20.45 45.45 19.48 46.72Q18.50 48.00 17.35 48.65L13 51.15Q11.30 52.15 10 51.40Q8.70 50.65 8.70 48.65L8.70 60.15L21.65 52.65L21.65 57.65L8.70 65.15Q6.95 66.15 5.65 65.40Q4.35 64.65 4.35 62.65L4.35 43.65Q4.35 42.30 4.95 40.82Q5.55 39.35 6.55 38.07Q7.55 36.80 8.70 36.15M17.35 36.15L8.70 41.15L8.70 48.65L17.35 43.65L17.35 36.15M21.65 52.65L8.70 60.15L4.35 57.65L17.35 50.15L21.65 52.65M17.35 36.15L17.35 43.65L13 41.15L13 33.65L17.35 36.15M8.70 48.65Q8.70 50.65 10 51.40L5.65 48.90Q4.35 48.15 4.35 46.15L8.70 48.65M17.35 43.65L8.70 48.65L4.35 46.15L13 41.15L17.35 43.65M20.35 30.90Q19.05 30.15 17.35 31.15L8.70 36.15Q7.55 36.80 6.55 38.07Q5.55 39.35 4.95 40.82Q4.35 42.30 4.35 43.65L4.35 62.65Q4.35 64.65 5.65 65.40L1.30 62.90Q0 62.15 0 60.15L0 41.15Q0 39.80 0.60 38.32Q1.20 36.85 2.20 35.57Q3.20 34.30 4.35 33.65L13 28.65Q14.75 27.65 16.05 28.40L20.35 30.90ZM30.35 55.65L30.35 50.65L43.35 43.15L43.35 48.15L30.35 55.65M43.35 43.15L30.35 50.65L26 48.15L39 40.65L43.35 43.15M30.35 50.65L30.35 55.65L26 53.15L26 48.15L30.35 50.65ZM56.35 58.65Q54.60 59.65 53.30 58.90Q52 58.15 52 56.15L52 40.65L56.35 38.15L56.35 53.65L65 48.65L65 33.15L69.30 30.65L69.30 57.65Q69.30 58.95 68.70 60.45Q68.10 61.95 67.13 63.22Q66.15 64.50 65 65.15L52 72.65L52 67.65L65 60.15L65 48.65Q65 49.95 64.40 51.45Q63.80 52.95 62.80 54.22Q61.80 55.50 60.65 56.15L56.35 58.65M65 48.65L65 60.15L60.65 57.65L60.65 46.15L65 48.65M65 60.15L52 67.65L47.65 65.15L60.65 57.65L65 60.15M52 67.65L52 72.65L47.65 70.15L47.65 65.15L52 67.65M69.30 30.65L65 33.15L60.65 30.65L65 28.15L69.30 30.65M65 33.15L65 48.65L60.65 46.15L60.65 30.65L65 33.15M65 48.65L56.35 53.65L52 51.15L60.65 46.15L65 48.65M56.35 38.15L52 40.65L47.65 38.15L52 35.65L56.35 38.15M52 40.65L52 56.15Q52 58.15 53.30 58.90L48.95 56.40Q47.65 55.65 47.65 53.65L47.65 38.15L52 40.65ZM78 38.65L91 31.15Q92.70 30.15 94 30.90Q95.30 31.65 95.30 33.65L95.30 57.65L91 60.15L91 55.15Q91 56.45 90.40 57.95Q89.80 59.45 88.80 60.72Q87.80 62.00 86.65 62.65L82.35 65.15Q80.60 66.15 79.30 65.40Q78 64.65 78 62.65L78 55.65Q78 54.30 78.60 52.82Q79.20 51.35 80.20 50.07Q81.20 48.80 82.35 48.15L91 43.15L91 36.15L78 43.65L78 38.65M82.35 60.15L91 55.15L91 48.15L82.35 53.15L82.35 60.15M91 36.15L91 43.15L86.65 40.65L86.65 33.65L91 36.15M91 55.15L91 60.15L86.65 57.65L86.65 52.65L91 55.15M91 48.15L91 55.15L86.65 52.65L86.65 45.65L91 48.15M91 55.15L82.35 60.15L78 57.65L86.65 52.65L91 55.15M91 43.15L82.35 48.15Q81.20 48.80 80.20 50.07Q79.20 51.35 78.60 52.82Q78 54.30 78 55.65L78 62.65Q78 64.65 79.30 65.40L74.95 62.90Q73.65 62.15 73.65 60.15L73.65 53.15Q73.65 51.80 74.25 50.32Q74.85 48.85 75.85 47.57Q76.85 46.30 78 45.65L86.65 40.65L91 43.15M94 30.90Q92.70 30.15 91 31.15L78 38.65L73.65 36.15L86.65 28.65Q88.40 27.65 89.70 28.40L94 30.90M78 38.65L78 43.65L73.65 41.15L73.65 36.15L78 38.65ZM104 38.65L108.35 36.15L108.35 41.15Q108.35 39.80 108.95 38.32Q109.55 36.85 110.53 35.57Q111.50 34.30 112.65 33.65L117 31.15Q118.70 30.15 120 30.90Q121.30 31.65 121.30 33.65L121.30 55.65L117 58.15L117 36.15L108.35 41.15L108.35 63.15L104 65.65L104 38.65M117 36.15L117 58.15L112.65 55.65L112.65 33.65L117 36.15M104 38.65L104 65.65L99.65 63.15L99.65 36.15L104 38.65M120 30.90Q118.70 30.15 117 31.15L112.65 33.65Q111.50 34.30 110.53 35.57Q109.55 36.85 108.95 38.32Q108.35 39.80 108.35 41.15L104 38.65Q104 37.30 104.60 35.82Q105.20 34.35 106.20 33.07Q107.20 31.80 108.35 31.15L112.65 28.65Q114.40 27.65 115.70 28.40L120 30.90M108.35 36.15L104 38.65L99.65 36.15L104 33.65L108.35 36.15ZM130 38.65L143 31.15Q144.70 30.15 146 30.90Q147.30 31.65 147.30 33.65L147.30 57.65L143 60.15L143 55.15Q143 56.45 142.40 57.95Q141.80 59.45 140.80 60.72Q139.80 62.00 138.65 62.65L134.35 65.15Q132.60 66.15 131.30 65.40Q130 64.65 130 62.65L130 55.65Q130 54.30 130.60 52.82Q131.20 51.35 132.20 50.07Q133.20 48.80 134.35 48.15L143 43.15L143 36.15L130 43.65L130 38.65M134.35 60.15L143 55.15L143 48.15L134.35 53.15L134.35 60.15M143 36.15L143 43.15L138.65 40.65L138.65 33.65L143 36.15M143 55.15L143 60.15L138.65 57.65L138.65 52.65L143 55.15M143 48.15L143 55.15L138.65 52.65L138.65 45.65L143 48.15M143 55.15L134.35 60.15L130 57.65L138.65 52.65L143 55.15M143 43.15L134.35 48.15Q133.20 48.80 132.20 50.07Q131.20 51.35 130.60 52.82Q130 54.30 130 55.65L130 62.65Q130 64.65 131.30 65.40L126.95 62.90Q125.65 62.15 125.65 60.15L125.65 53.15Q125.65 51.80 126.25 50.32Q126.85 48.85 127.85 47.57Q128.85 46.30 130 45.65L138.65 40.65L143 43.15M146 30.90Q144.70 30.15 143 31.15L130 38.65L125.65 36.15L138.65 28.65Q140.40 27.65 141.70 28.40L146 30.90M130 38.65L130 43.65L125.65 41.15L125.65 36.15L130 38.65Z"/></g></g></svg>